<?xml version="1.0" encoding="UTF-8"?>
<svg version="1.1" xmlns="http://www.w3.org/2000/svg" width="512" height="512">
<path d="M0 0 C0.92167969 0.75796875 1.84335937 1.5159375 2.79296875 2.296875 C21.23476582 18.21560534 34.70195545 40.9309505 39 65 C40.00804687 64.84015625 41.01609375 64.6803125 42.0546875 64.515625 C72.41040323 60.54834334 105.73094577 69.99728229 129.92578125 88.53125 C134.46857381 92.17933754 138.79469337 95.96875407 143 100 C143.81984375 100.75667969 144.6396875 101.51335937 145.484375 102.29296875 C168.14445691 123.86227032 178.338964 152.56973745 182 183 C183.28970703 183.12955078 183.28970703 183.12955078 184.60546875 183.26171875 C203.38293212 185.49371821 219.06697449 193.42201486 231.453125 207.859375 C241.58053454 220.8036799 246.6056172 234.49383445 246.375 250.9375 C246.3586853 252.52280518 246.3586853 252.52280518 246.34204102 254.14013672 C245.97176156 272.229336 239.14064367 287.62895116 226.53417969 300.54541016 C211.76094996 314.55223745 193.69892191 319.4785475 173.82557678 319.38768005 C172.32305376 319.391861 170.8205339 319.39734267 169.31801981 319.40399987 C165.21999324 319.41837327 161.12216917 319.41423534 157.02413189 319.40683305 C152.59254103 319.40208352 148.16099286 319.4146269 143.72941589 319.42485046 C135.05981927 319.44200849 126.39029522 319.44288477 117.72068603 319.43763756 C110.67159101 319.43358931 103.62251738 319.43504719 96.57342339 319.44038582 C95.56857117 319.44113424 94.56371896 319.44188266 93.52841667 319.44265376 C91.48680158 319.4441853 89.4451865 319.44572365 87.40357142 319.44726873 C68.27683971 319.46098274 49.15014895 319.45556364 30.02341818 319.44408352 C12.54096865 319.43415062 -4.94137506 319.44709476 -22.42380827 319.47101771 C-40.39484916 319.49542316 -58.36584079 319.50501313 -76.33689791 319.49836498 C-86.41828875 319.4948762 -96.49959821 319.49708243 -106.58097649 319.51461601 C-115.16217961 319.52935599 -123.74324401 319.52994987 -132.32444447 319.5125451 C-136.69877584 319.50404785 -141.0728596 319.50185429 -145.44717789 319.51719666 C-149.45864104 319.53109172 -153.46964556 319.52621933 -157.48108251 319.50695742 C-158.92508961 319.50321183 -160.36913388 319.50607745 -161.81310772 319.51656907 C-175.74927879 319.61055294 -187.15941276 317.0338227 -198 308 C-198.70898438 307.42636719 -199.41796875 306.85273438 -200.1484375 306.26171875 C-208.93657604 298.39953351 -214.39153809 286.30598796 -215.24609375 274.640625 C-215.75957783 259.39170376 -211.28999151 246.55614004 -200.9375 235.3125 C-192.4902973 227.27839827 -182.09124346 222.28390328 -170.4375 221.875 C-169.633125 221.91625 -168.82875 221.9575 -168 222 C-168.0825 220.845 -168.165 219.69 -168.25 218.5 C-168.15977877 204.06460362 -161.91545287 188.8731793 -154 177 C-154.56460938 176.76667969 -155.12921875 176.53335938 -155.7109375 176.29296875 C-173.11728269 166.46105704 -184.38418847 139.36097455 -189.47851562 121.15576172 C-197.32263155 91.27243236 -193.33892572 58.71405722 -178.06640625 31.81103516 C-161.33568611 3.39792115 -135.79683592 -15.20192284 -104.2265625 -24.05859375 C-67.70343016 -32.95525419 -28.84692307 -23.99150037 0 0 Z " fill="#EFF4F6" transform="translate(266,147)"/>
<path d="M0 0 C3.45400101 2.8857462 6.75143777 5.88589813 10 9 C10.81984375 9.75667969 11.6396875 10.51335937 12.484375 11.29296875 C35.14445691 32.86227032 45.338964 61.56973745 49 92 C50.28970703 92.12955078 50.28970703 92.12955078 51.60546875 92.26171875 C70.38293212 94.49371821 86.06697449 102.42201486 98.453125 116.859375 C108.58053454 129.8036799 113.6056172 143.49383445 113.375 159.9375 C113.36412354 160.99437012 113.35324707 162.05124023 113.34204102 163.14013672 C112.97176156 181.229336 106.14064367 196.62895116 93.53417969 209.54541016 C78.00653504 224.267515 59.35866641 228.48502499 38.66503906 228.34057617 C36.94900528 228.33972828 35.23297041 228.3402082 33.51693726 228.34190369 C28.89373112 228.34275874 24.27076207 228.32521304 19.64761066 228.30418181 C14.80298908 228.28533264 9.95836109 228.28365811 5.1137085 228.28010559 C-4.044513 228.27080921 -13.2026261 228.24622825 -22.36080003 228.21605712 C-32.79375446 228.18243788 -43.22671427 228.16600824 -53.65970945 228.15097082 C-75.10653329 228.11967638 -96.5532598 228.06696305 -118 228 C-118 227.67 -118 227.34 -118 227 C-117.29617188 226.86464844 -116.59234375 226.72929687 -115.8671875 226.58984375 C-99.02223445 222.91738009 -85.13800686 214.41637479 -75.046875 200.37109375 C-66.05525321 185.56237313 -63.25299096 168.07478538 -66.6484375 151.015625 C-71.10181442 135.40977424 -81.08379968 122.34845388 -94.765625 113.75390625 C-102.56241564 109.52593645 -109.95290032 107.01847272 -118.8125 106.75 C-122.01778634 106.34691683 -124.13897322 106.03550063 -126.26025391 103.484375 C-128.4050516 100.00525616 -130.06151749 96.31989175 -131.76171875 92.609375 C-140.66350562 73.37480005 -159.57028642 59.29913037 -179 52 C-183.63873927 50.54442852 -188.29563017 49.22931708 -193 48 C-192.49732024 42.8710956 -190.67536253 39.12196972 -188 34.8125 C-187.59483154 34.1532251 -187.18966309 33.4939502 -186.7722168 32.81469727 C-168.28581806 3.33599867 -138.8403542 -16.51279492 -105.11328125 -24.375 C-68.21426728 -31.78258122 -29.51619968 -23.70297102 0 0 Z " fill="#9FEBFE" transform="translate(399,238)"/>
<path d="M0 0 C0.92167969 0.75796875 1.84335937 1.5159375 2.79296875 2.296875 C21.22575136 18.20782417 35.60464254 41.64709131 39 66 C37.94683594 66.15855469 36.89367187 66.31710938 35.80859375 66.48046875 C4.148008 71.49157653 -26.69341686 87.80305433 -46.02734375 113.97265625 C-47.84950761 116.54914528 -49.62983914 119.15074566 -51.3671875 121.78515625 C-52.00358154 122.74349365 -52.00358154 122.74349365 -52.65283203 123.72119141 C-54.11275092 126.09198095 -54.11275092 126.09198095 -55.40576172 129.14990234 C-57.01598289 132.53121738 -58.47589159 135.22626981 -61 138 C-65.53322083 139.39451522 -69.69785469 138.94622831 -74.375 138.5 C-76.8978021 138.38029197 -79.42131787 138.27476156 -81.9453125 138.18359375 C-83.1612207 138.13444824 -84.37712891 138.08530273 -85.62988281 138.03466797 C-105.65515194 137.82867056 -126.31082993 149.41368398 -140.28442383 162.92529297 C-145.06996282 167.66656555 -149.18582259 172.4329837 -153 178 C-171.31288279 168.01704796 -183.13583102 142.45895725 -188.875 123.3125 C-197.21652132 93.50303423 -193.92439763 60.94385347 -179.125 33.67578125 C-162.46078683 4.32124706 -136.5543327 -14.98941598 -104.2265625 -24.05859375 C-67.70343016 -32.95525419 -28.84692307 -23.99150037 0 0 Z " fill="#F9B03C" transform="translate(266,147)"/>
<path d="M0 0 C2.48138103 2.18515414 4.88283902 4.4308447 7.26953125 6.71875 C8.089375 7.47542969 8.90921875 8.23210937 9.75390625 9.01171875 C32.41398816 30.58102032 42.60849525 59.28848745 46.26953125 89.71875 C47.55923828 89.84830078 47.55923828 89.84830078 48.875 89.98046875 C67.65246337 92.21246821 83.33650574 100.14076486 95.72265625 114.578125 C105.85006579 127.5224299 110.87514845 141.21258445 110.64453125 157.65625 C110.63365479 158.71312012 110.62277832 159.76999023 110.61157227 160.85888672 C110.24129281 178.948086 103.41017492 194.34770116 90.80371094 207.26416016 C76.77461547 220.56545723 59.33051144 226.28043718 40.34765625 225.82421875 C39.331875 225.78941406 38.31609375 225.75460937 37.26953125 225.71875 C37.69105469 224.62175781 38.11257813 223.52476562 38.546875 222.39453125 C39.10046587 220.94018235 39.65383987 219.4857509 40.20703125 218.03125 C40.48482422 217.31001953 40.76261719 216.58878906 41.04882812 215.84570312 C46.63933606 201.09484483 45.7932986 183.05457829 39.5703125 168.578125 C31.52085171 151.1366095 19.49072701 138.56474337 1.26953125 131.71875 C-5.68135078 129.42385562 -12.46345698 127.64782366 -19.73046875 126.71875 C-19.900625 125.6771875 -20.07078125 124.635625 -20.24609375 123.5625 C-25.29427721 93.3551656 -35.34973989 68.3906774 -56.73046875 45.71875 C-57.34277344 45.04199219 -57.95507812 44.36523438 -58.5859375 43.66796875 C-79.17577979 21.76107898 -110.33303798 9.80357592 -139.93847656 8.58691406 C-150.59518634 8.33385235 -161.13796497 8.46381774 -171.73046875 9.71875 C-154.02372263 -12.77360318 -124.79120914 -24.32218295 -97.23046875 -28.53125 C-62.03516578 -32.60920264 -27.19792161 -22.72329931 0 0 Z " fill="#60DAFE" transform="translate(401.73046875,240.28125)"/>
<path d="M0 0 C0.91225342 -0.00064453 1.82450684 -0.00128906 2.7644043 -0.00195312 C9.92343525 0.05371487 16.72752409 0.72828423 23.75 2.1875 C27.64449608 20.61681181 26.51391031 39.06255647 21.75 57.1875 C21.48509766 58.20166992 21.48509766 58.20166992 21.21484375 59.23632812 C16.98484503 74.7619901 8.99939939 88.8638174 -1.25 101.1875 C-2.38695312 102.57001953 -2.38695312 102.57001953 -3.546875 103.98046875 C-22.4452947 125.87422621 -51.39996894 140.82274336 -80.25 143.1875 C-92.04214355 143.70260143 -103.66335873 143.63599778 -115.25 141.1875 C-121.50706679 111.07536609 -115.36622431 79.69114368 -99.125 53.73046875 C-80.9486098 26.36850993 -54.35541525 8.70918367 -22.3046875 1.6953125 C-14.86308578 0.45821758 -7.54032623 -0.00555918 0 0 Z " fill="#F6CA42" transform="translate(190.25,119.8125)"/>
<path d="M0 0 C1.33331784 0.01510704 2.66665267 0.02878458 4 0.04101562 C7.20878565 0.07589373 10.4166563 0.12489974 13.625 0.1875 C13.625 0.8475 13.625 1.5075 13.625 2.1875 C15.2028125 2.2803125 15.2028125 2.2803125 16.8125 2.375 C30.78499573 4.15241995 44.04874972 12.2695468 54.625 21.1875 C55.42679687 21.83203125 56.22859375 22.4765625 57.0546875 23.140625 C64.96546968 29.79455394 72.49176151 38.29975697 76.2109375 48.09375 C78.43719492 54.62704167 78.43719492 54.62704167 83.38769531 59.00292969 C87.70214587 60.17770779 92.11458065 60.50796706 96.55371094 60.92138672 C109.49453702 62.58398696 121.31612548 72.69786736 129.51953125 82.24609375 C140.69853366 97.8635127 144.36336412 115.55332097 141.23828125 134.53662109 C139.19577721 143.32143098 134.99114393 151.01761021 129.625 158.1875 C129.05265625 158.96609375 128.4803125 159.7446875 127.890625 160.546875 C119.1682357 171.35667371 104.67527443 179.77749314 90.921875 181.70703125 C87.81696965 181.95905279 84.73899874 182.13143783 81.625 182.1875 C82.08390625 181.48625 82.5428125 180.785 83.015625 180.0625 C93.39923196 164.00717495 99.73788948 147.66619338 95.94140625 128.1953125 C93.95980203 120.15378168 91.1349685 113.13263309 86.625 106.1875 C86.12355469 105.40890625 85.62210938 104.6303125 85.10546875 103.828125 C75.94815221 90.90539119 60.97511088 83.08417769 45.625 80.1875 C44.06247763 80.2913305 42.49997624 80.39547758 40.9375 80.5 C38.73828125 80.3203125 38.73828125 80.3203125 36.625 79.1875 C34.24289667 75.41852413 32.46789353 71.53337372 30.6484375 67.47265625 C22.01079643 48.43192454 3.45735636 33.96556082 -15.68359375 26.4375 C-30.95595105 21.26590811 -45.31127579 20.65572405 -61.375 21.1875 C-46.08981112 4.76162538 -21.49030907 -0.42674239 0 0 Z " fill="#DCE9EC" transform="translate(192.375,283.8125)"/>
<path d="M0 0 C21.14526639 4.92072296 41.88997076 14.42491092 56.06640625 31.45703125 C57.1875 33.375 57.1875 33.375 57.375 37.1875 C56.08124473 40.66021152 55.53199292 41.83834109 52.1875 43.375 C48.41281021 43.83316924 46.77589913 43.81537997 43.6875 41.50390625 C42.8625 40.65699219 42.0375 39.81007813 41.1875 38.9375 C24.71414867 23.19877109 4.04497082 15.2742625 -18.75390625 14.87890625 C-22.51558441 14.25916617 -24.1813849 13.10231675 -26.8125 10.375 C-27.4765625 8.375 -27.4765625 8.375 -27.4375 6.375 C-27.45039063 5.715 -27.46328125 5.055 -27.4765625 4.375 C-23.94938547 -6.2480273 -8.10734523 -1.74441007 0 0 Z " fill="#9EEBFF" transform="translate(339.8125,236.625)"/>
<path d="M0 0 C3.32878632 2.46040728 4.79301948 3.89610387 5.5625 8 C4.70965846 12.54848822 2.25689229 15.08413475 -1.43847656 17.77685547 C-4.36372121 19.49848934 -7.29745687 21.20053388 -10.25 22.875 C-11.26191406 23.48085938 -12.27382813 24.08671875 -13.31640625 24.7109375 C-21.71664279 29.50484681 -21.71664279 29.50484681 -26.609375 28.98828125 C-30 28 -30 28 -32 26.3125 C-33.3251184 23.2481637 -33.47322484 21.3125739 -33 18 C-29.01418854 12.1836889 -23.65852831 9.55321822 -17.625 6.1875 C-16.59632812 5.59001953 -15.56765625 4.99253906 -14.5078125 4.37695312 C-13.5075 3.81298828 -12.5071875 3.24902344 -11.4765625 2.66796875 C-10.56986816 2.15516357 -9.66317383 1.6423584 -8.72900391 1.11401367 C-5.56918547 -0.1758639 -3.3835366 -0.35721902 0 0 Z " fill="#F8E98E" transform="translate(57,308)"/>
<path d="M0 0 C2.3125 1 2.3125 1 4 3 C5.31472473 7.31049063 5.5558703 9.64650619 3.82788086 13.85400391 C2.09262857 17.08038847 0.23927452 20.19682446 -1.6875 23.3125 C-2.32623047 24.39595703 -2.96496094 25.47941406 -3.62304688 26.59570312 C-9.01010773 35.55928215 -9.01010773 35.55928215 -13 38 C-15.9375 38.5 -15.9375 38.5 -19 38 C-22.12836393 35.68773101 -23.79427399 34.28007298 -24.421875 30.375 C-23.82874542 25.62996335 -21.75877202 22.21634509 -19.375 18.125 C-18.94832031 17.36058594 -18.52164062 16.59617187 -18.08203125 15.80859375 C-8.69509175 -0.69560734 -8.69509175 -0.69560734 0 0 Z " fill="#F8E98E" transform="translate(285,71)"/>
<path d="M0 0 C2.375 1.0625 2.375 1.0625 4 3 C5.03934397 6.74163831 5.48803938 8.95444729 3.82348633 12.52050781 C1.74822212 15.34235589 -0.07111378 16.58435915 -3.11328125 18.296875 C-4.11423828 18.86277344 -5.11519531 19.42867187 -6.14648438 20.01171875 C-7.19126953 20.58535156 -8.23605469 21.15898437 -9.3125 21.75 C-10.34568359 22.33910156 -11.37886719 22.92820313 -12.44335938 23.53515625 C-21.36134505 28.51183844 -21.36134505 28.51183844 -27 29 C-31.56521739 26.86956522 -31.56521739 26.86956522 -33 24 C-33.375 20.6875 -33.375 20.6875 -33 17 C-28.86938522 11.85394242 -23.28876785 8.92450065 -17.625 5.6875 C-16.70460938 5.13771484 -15.78421875 4.58792969 -14.8359375 4.02148438 C-9.63722057 1.03222214 -6.02594314 -0.85183489 0 0 Z " fill="#F8E98E" transform="translate(352,138)"/>
<path d="M0 0 C4.67489081 0.97393558 6.88294739 4.01770147 9.50976562 7.79736328 C11.13934625 10.33762175 12.70229147 12.90910557 14.25 15.5 C14.79140625 16.37269531 15.3328125 17.24539062 15.890625 18.14453125 C18.83621781 23.04157929 20.81339317 26.87004526 21 32.625 C20.21270916 35.27316011 19.47719891 36.25384529 17.3125 37.9375 C13.6953097 39.0128809 11.61845524 38.74796887 8 37.625 C3.2820104 32.71055743 -0.0746855 26.41264802 -3.375 20.5 C-3.82488281 19.72785156 -4.27476563 18.95570312 -4.73828125 18.16015625 C-7.1377738 13.87899477 -8.8111815 10.67235155 -8 5.625 C-5.54405875 2.30225596 -4.0743356 0.84881992 0 0 Z " fill="#F8E98E" transform="translate(99,70.375)"/>
<path d="M0 0 C3.48067015 1.47550964 6.72235387 3.31008358 10 5.1875 C10.8765625 5.67025391 11.753125 6.15300781 12.65625 6.65039062 C24.70476845 13.40953689 24.70476845 13.40953689 27 18 C27.38681451 21.55869346 27.46190157 23.34267853 25.375 26.3125 C22.46368879 28.38106323 20.54961926 28.72830075 17 29 C14.5 28.06640625 14.5 28.06640625 12 26.5625 C11.0615625 26.00949219 10.123125 25.45648438 9.15625 24.88671875 C7.59390625 23.95279297 7.59390625 23.95279297 6 23 C4.76307936 22.3141859 3.52337942 21.63336561 2.28125 20.95703125 C1.02073562 20.26319832 -0.23968227 19.56919008 -1.5 18.875 C-2.39912109 18.38882202 -2.39912109 18.38882202 -3.31640625 17.89282227 C-6.66117571 16.01424659 -9.06107188 14.34599748 -11 11 C-11.5 8.0625 -11.5 8.0625 -11 5 C-7.6397671 0.45380254 -5.56469812 -0.73817424 0 0 Z " fill="#F8E98E" transform="translate(35,138)"/>
<path d="M0 0 C1.9790332 0.00580078 1.9790332 0.00580078 3.99804688 0.01171875 C4.6800415 0.02412598 5.36203613 0.0365332 6.06469727 0.04931641 C8.14974782 0.08589196 10.23302096 0.09033494 12.31835938 0.08984375 C23.61588113 0.18928404 23.61588113 0.18928404 27.08984375 2.4609375 C29.18663778 5.15681553 29.08495196 6.5538815 28.90234375 10.0234375 C27.82493074 14.58172332 27.82493074 14.58172332 25.08984375 16.4609375 C22.54994996 16.77132104 20.25949739 16.90528174 17.71875 16.89453125 C17.00001205 16.8997731 16.28127411 16.90501495 15.54075623 16.91041565 C14.02189423 16.91683356 12.50298252 16.91550175 10.98413086 16.90698242 C8.66364689 16.89847892 6.34563089 16.9272205 4.02539062 16.95898438 C2.54817782 16.96059674 1.07096067 16.96001819 -0.40625 16.95703125 C-1.09802841 16.96826523 -1.78980682 16.97949921 -2.50254822 16.99107361 C-5.90670067 16.94199691 -7.62943336 16.68080142 -10.34375 14.55493164 C-12.03315763 12.29650751 -12.47809899 11.2476211 -12.47265625 8.4609375 C-12.49457031 7.8009375 -12.51648437 7.1409375 -12.5390625 6.4609375 C-10.70170851 0.61792358 -5.36287147 -0.03656748 0 0 Z " fill="#F8E98E" transform="translate(11.91015625,228.5390625)"/>
<path d="M0 0 C0.99 0.03287109 0.99 0.03287109 2 0.06640625 C2.66 0.06511719 3.32 0.06382813 4 0.0625 C6.96969374 0.90352655 8.09581124 2.2054154 10 4.62890625 C10.41045674 7.26033784 10.58534427 9.468252 10.56640625 12.09765625 C10.57570412 13.17364075 10.57570412 13.17364075 10.58518982 14.2713623 C10.59227697 15.78424729 10.58913308 17.29721045 10.57641602 18.81005859 C10.56254007 21.12222951 10.59663692 23.43035783 10.63476562 25.7421875 C10.63571682 27.21484474 10.63385795 28.68750703 10.62890625 30.16015625 C10.64216446 30.84879761 10.65542267 31.53743896 10.66908264 32.24694824 C10.59814478 35.91166267 10.22574026 37.38774807 7.68725586 40.09960938 C5 41.62890625 5 41.62890625 1.375 41.56640625 C-1.84839166 40.67101968 -3.09276958 40.2778374 -5 37.62890625 C-7.14068035 33.34754555 -6.26806725 27.68754161 -6.29516602 22.93530273 C-6.31235234 20.83445573 -6.35623599 18.73519424 -6.40039062 16.63476562 C-6.41052052 15.2929803 -6.4190357 13.95118161 -6.42578125 12.609375 C-6.44036377 11.39145264 -6.45494629 10.17353027 -6.4699707 8.91870117 C-5.87206246 4.73334344 -4.25111026 1.33677491 0 0 Z " fill="#F8E98E" transform="translate(188,46.37109375)"/>
<path d="M0 0 C4.32738707 3.56135892 6.21443526 7.18222482 7.8125 12.4375 C8.02841797 13.08009766 8.24433594 13.72269531 8.46679688 14.38476562 C9.73596936 18.35344785 10.40730361 21.84310727 10 26 C7.9375 28.9375 7.9375 28.9375 5 31 C1.63353306 31 -0.73416278 30.88448373 -3.54296875 28.921875 C-5.75210243 26.00795068 -6.6441611 22.70468108 -7.6875 19.25 C-7.91244141 18.5590625 -8.13738281 17.868125 -8.36914062 17.15625 C-9.75556256 12.67250245 -10.37199108 8.74141015 -10 4 C-7.27238925 -0.09141613 -4.79563536 -0.88083098 0 0 Z " fill="#9DEBFF" transform="translate(411,293)"/>
</svg>
